<?xml version="1.0" encoding="utf-8"?>
<!-- Designed by Vexels.com - 2020 All Rights Reserved - https://vexels.com/terms-and-conditions/  -->
<svg version="1.1" id="Capa_1" xmlns="http://www.w3.org/2000/svg" xmlns:xlink="http://www.w3.org/1999/xlink" x="0px" y="0px"
	 viewBox="0 0 1200 1200" enable-background="new 0 0 1200 1200" xml:space="preserve">
<g>
	<path d="M1146.267,935.39c-8.015-30.183-15.539-60.495-23.257-90.756c-3.134-12.472-6.267-24.944-9.401-37.415
		c-0.578-9.691-2.34-19.097-4.936-28.517c-7.7-27.943-14.031-55.721-6.39-85.344c3.64-14.118,2.523-29.712-0.659-44.525
		c-0.022-2.024-0.044-4.049-0.066-6.073c0.147-3.401,0.296-6.802,0.443-10.203c2.084-7.023,2.037-14.081,0.35-21.167
		c0.016-8.813,0.031-17.626,0.046-26.439c-0.56,0.852-1.12,1.704-1.68,2.556c0.381-0.912,0.904-1.777,1.68-2.556
		c1.247-3.084-0.129-4.967-2.857-6.23c-2.95-12.401,7.108-25.403-1.736-37.532c0,0,0,0,0-0.001
		c0.663-6.778,1.309-13.554-1.837-19.981c-1.09-1.88-2.283-3.695-3.538-5.468c0.001,0,0.001,0.001,0.001,0.001
		c1.179,1.823,2.359,3.645,3.537,5.467c0.159-2.694-1.121-4.456-3.326-5.617c0.719-8.791,7.677-17.691-0.496-26.328
		c0.142-17.196,0.286-34.391,0.43-51.586c8.209-26.475,3.094-53.673,4.376-80.524c4.3-30.62,0.217-60.693-5.729-90.681
		c-1.699-8.571-7.199-17.335-14.279-16.712c-17.196,1.513-16.93-9.877-19.315-20.511c-2.273-10.142-5.051-20.172-7.3-30.32
		c-2.805-12.666-8.425-22.862-21.834-26.812c-11.743-5.413-21.81-0.718-31.675,5.195c-4.005-3.401-8.289-8.634-13.565-6.665
		c-14.521,5.421-29.624,2.466-44.365,4.45c-32.221,4.336-64.741,10.685-96.25-4.499c-6.029-2.905-12.058-0.107-17.315,3.615
		c-6.463,4.576-12.919,9.161-19.379,13.743c-1.675,1.461-3.351,2.922-5.026,4.383c-5.84-4.199-11.711-6.409-17.717-0.173
		c-0.001,0-0.001,0-0.001,0.001c-0.973-0.477-1.929-0.444-2.867,0.098c-5.732-4.645-11.457-3.441-17.179,0.022
		c-1.615-0.608-3.198-0.533-4.749,0.224c-23.314-7.763-46.639-6.127-69.97-0.093c-1.607-0.696-3.078-0.479-4.415,0.651
		c-6.085-3.081-12.618-4.265-19.358-4.585c-8.178-0.931-16.348-1.893-23.387-6.764c-1.991-16.048-11.559-21.362-26.891-20.003
		c-8.491,0.753-17.133-0.185-25.707-0.36c-0.718-5.484-1.623-9.112-9.279-9.654c-24.74-1.755-48.33,2.408-71.481,10.482
		c-15.95-16.406-34.674-15.057-54.031-7.735c-6.419,2.428-14.412,9.539-19.168,4.863c-15.326-15.066-22.244-0.621-31.485,6.876
		c-41.904,7.961-84.637,7.539-126.853,12.519c-40.174,4.739-80.035,10.367-118.132,24.748c-1.327-0.761-2.653-0.758-3.977,0.009
		c-9.277-0.26-18.583-0.669-26.568,5.412c-5.314,0.133-10.628,0.265-15.943,0.398c-1.872-1.268-3.588-1.022-5.165,0.538
		c-10.092,5.349-3.026,18.911-11.899,24.843c-2.718,0.993-3.893,3.093-4.184,5.828c-10.299-0.715-8.185-9.694-10.481-15.737
		c0.596-1.778,0.44-3.488-0.47-5.128c-3.551-7.644-7.865-12.661-13.53-1.891c-3.364,6.393-3.43,13.285,1.921,19.217
		c-0.298,1.407,0.11,2.564,1.225,3.473c0.001,0,0.001,0,0.001,0c-8.22,8.978-4.105,17.9,0.12,26.823
		c-1.733,10.539-3.466,21.078-5.2,31.617c-7.185,2.899-5.762,9.339-6.182,15.021c-4.626,5.868-4.368,11.652,0.301,17.358
		c0.452,4.05,0.939,8.082,5.192,10.197c1.332,16.253,2.85,32.418-5.499,47.7c-2.493,4.563-1.722,10.16-0.132,15.278
		c-5.006,4.601-2.345,10.893-3.604,16.321c-0.174,1.755-0.348,3.51-0.522,5.264c-0.217,5.229-0.433,10.457-0.649,15.686
		c-6.183,15.78,1.328,29.967,5.192,44.576c0,0.001,0,0.001,0,0.002c-0.06,2.26-0.12,4.519-0.18,6.778
		c-6.737,8.641-2.932,18.839-4.18,28.29c-0.012,1.78-0.024,3.559-0.036,5.339c0.424,0,0.845,0.585,1.265,1.756
		c0.42,1.17-0.003,2.339-1.271,3.507c-0.009,1.782-0.018,3.563-0.026,5.344c0.891,0.793,1.372,1.715,1.714,2.681
		c-0.524-0.909-1.043-1.818-1.714-2.681c0.033,5.305,0.067,10.611,0.101,15.916c-1.334,13.063-4.874,26.346-3.601,39.15
		c4.365,43.889,1.057,87.867,3.212,131.744c0.345,7.018-0.094,14.165,5.599,19.616c-0.034,3.602-0.069,7.203-0.103,10.805
		c-0.494,39.931,8.973,79.925-0.762,119.797c-1.092,2.787-1.756,5.561-1.967,8.319c-4.431,20.629-5.388,41.493-2.879,62.594
		c0.394,5.385,4.353,10.516,1.151,16.157c-1.413,1.502-1.553,3.114-0.42,4.838c0.264,7.644-1.963,15.654,3.314,22.562
		c-1.463,3.289-4.231,6.695,0.851,9.391c3.626,11.593,10.411,16.564,22.379,10.674c1.007-2.188,3.035-3.623,4.223-5.677
		c-0.005,0.026-0.009,0.051-0.014,0.077l-0.001,0.001l0.001,0v0c0,0,0,0,0-0.001c1.963-1.438,2.656-3.265,2.915-5.226
		c0.958-1.718,1.917-3.436,2.875-5.154c0.295-3.649,0.59-7.298,0.885-10.947l0,0c1.908-0.128,3.816-0.255,5.723-0.383
		c0-0.001-0.001-0.001-0.001-0.002c0.001,0,0.001,0.001,0.002,0.001c1.419-0.123,2.721,0.21,3.906,0.998
		c0.353,1.997,0.706,3.994,1.058,5.989c-6.667,6.452-6.634,13.113-0.044,19.974v0c0.001,0.001,0.002,0.003,0.002,0.004l-0.723-0.748
		c1.41,2.96,3.662,4.863,6.916,5.507c32.932,10.853,65.315,24.96,100.217,27.027c34.83,2.063,69.878,0.467,104.67,4.559
		c1.571-1.12,3.21-1.228,4.915-0.325c3.585-1.234,7.17-2.468,10.755-3.701c8.886,10.348,20.969,4.188,31.49,6.095
		c5.585,4.173,11.172,5.111,16.764,0.013l2.373,0.178l2.304-0.593c18.453,4.81,36.901,6.482,55.329-0.1c0.002,0,0.004,0,0.005,0
		c22.22-0.4,44.438-0.8,66.656-1.199c8.211-1.189,16.422-2.378,24.632-3.567c21.625,4.898,43.211,10.548,65.457,3.352
		c37.05,4.293,74.117,6.932,111.271,1.116c3.631-0.424,7.262-0.847,10.893-1.271c3.331-2.021,6.642-2.061,9.933,0.094
		c5.402-1.413,11.724,0.894,16.261-4.019l2.06,0.655l2.13-0.367c21.881,3.668,43.765,7.974,65.597-0.278
		c19.311-0.517,38.657-0.47,57.927-1.668c41.032-2.551,82.057-6.635,123.169-5.234c26.58,0.906,52.59-6.168,79.148-3.709
		c3.173,0.294,8.347-0.877,9.589-3.07c9.276-16.387,28.049-16.214,41.683-24.814c15.442-7.213,23.296-19.958,26.383-36.177
		C1150.19,955.786,1148.974,945.584,1146.267,935.39z M71.639,977.741c-0.017,0.074-0.031,0.149-0.047,0.222
		c-0.05-0.036-0.111-0.059-0.163-0.095C71.499,977.827,71.569,977.784,71.639,977.741z M63.859,963.853
		c0.007,0.234-0.007,0.468-0.005,0.702c-0.49-0.193-1.031-0.255-1.547-0.379C62.827,964.076,63.363,964.019,63.859,963.853z
		 M84.871,1003.207c0.061-0.109,0.121-0.217,0.182-0.326c0.007-0.012,0.017-0.022,0.023-0.034L84.871,1003.207z M89.673,982.575
		c0.248-0.452,0.497-0.904,0.745-1.356c0.37,0.23,0.74,0.46,1.11,0.691L89.673,982.575z"/>
	<path d="M716.098,1044.834c3.299,1.428,6.608,1.567,9.933,0.094C722.737,1043.103,719.427,1043.063,716.098,1044.834z"/>
	<path d="M313.255,1044.838c1.639-0.109,3.276-0.217,4.915-0.325C316.472,1043.708,314.834,1043.817,313.255,1044.838z"/>
</g>
</svg>
